<svg id="Layer_2" data-name="Layer 2" xmlns="http://www.w3.org/2000/svg" viewBox="0 0 63.46 100"><defs><style>.cls-1,.cls-6{fill:#007ac2;}.cls-2,.cls-3{fill:#fff;}.cls-3,.cls-4,.cls-6,.cls-9{fill-rule:evenodd;}.cls-4,.cls-5{fill:#231f20;}.cls-7{fill:none;}.cls-8,.cls-9{fill:#ed1c2e;}</style></defs><title>achp-logo-v02</title><path class="cls-1" d="M31.72,14.21A31.69,31.69,0,0,1,57.88,28V0H5.58V27.94A31.69,31.69,0,0,1,31.72,14.21Z"/><rect class="cls-2" x="12.01" y="70.74" width="38.69" height="29.26"/><circle class="cls-2" cx="31.73" cy="45.94" r="31.73"/><path class="cls-3" d="M60.57,45.94A28.84,28.84,0,1,1,31.73,17.1,28.85,28.85,0,0,1,60.57,45.94h0Z"/><path class="cls-4" d="M31.73,18A27.89,27.89,0,1,0,59.62,45.88,27.9,27.9,0,0,0,31.73,18Zm-0.08,6.77A21.43,21.43,0,0,1,52.24,40.3H11.16l-0.16.2A21.43,21.43,0,0,1,31.65,24.77Zm0,42.82A21.43,21.43,0,0,1,11,51.94H52.27A21.43,21.43,0,0,1,31.65,67.58Z"/><path class="cls-5" d="M31.73,75.08A29.14,29.14,0,1,1,60.87,45.94,29.18,29.18,0,0,1,31.73,75.08Zm0-57.68A28.54,28.54,0,1,0,60.27,45.94,28.57,28.57,0,0,0,31.73,17.4Z"/><path class="cls-2" d="M7.94,41.65L7.73,43,6.2,42.08Zm0.45-.12,1.24-.31,0.08-.51L5.13,41.91l4,2.54L9.22,44l-1.09-.67Z"/><path class="cls-2" d="M9.57,39.75l-3.12-1,0.1-.32a1.78,1.78,0,0,1,.78-1.1,1.69,1.69,0,0,1,2.34.74,1.74,1.74,0,0,1,0,1.38Zm0.26,0.57,0.24-.73a2.2,2.2,0,0,0,0-1.72,2,2,0,0,0-1.26-1.12,2,2,0,0,0-1.71.16,2.26,2.26,0,0,0-1,1.38L5.9,39Z"/><path class="cls-2" d="M10.81,35.15l-2.27-2.5,0.23-.44,3.13,3.51-4.68-.52,0.23-.44Z"/><path class="cls-2" d="M13,33.37l-0.25.39L9.29,31.48l0.25-.39Z"/><path class="cls-2" d="M12.05,29.11a0.76,0.76,0,0,0-.8.27,0.66,0.66,0,0,0,.07.94,0.84,0.84,0,0,0,.91-0.09l0.27-.14a1.25,1.25,0,1,1,.06,2.11l0.19-.43a0.85,0.85,0,0,0,1.12-.16,0.83,0.83,0,0,0-.09-1.17,1,1,0,0,0-1.12.07l-0.24.13a1.17,1.17,0,0,1-1.39,0,1.09,1.09,0,0,1-.09-1.57,1.19,1.19,0,0,1,1.18-.43Z"/><path class="cls-2" d="M14.47,26.11a1.72,1.72,0,1,1-.19,2.41A1.7,1.7,0,0,1,14.47,26.11Zm-0.28-.33a2.14,2.14,0,1,0,3,.25A2.16,2.16,0,0,0,14.2,25.78Z"/><path class="cls-2" d="M17.63,23.9l0.12-.07c0.48-.28.95-0.47,1.29,0.12s-0.08.91-.53,1.17l-0.12.07Zm1,1.64,0.1-.06,2,0.94,0.49-.28L19.1,25.2a1.08,1.08,0,0,0,.32-1.51c-0.47-.81-1.21-0.62-1.89-0.23l-0.52.3,2.08,3.58,0.4-.23Z"/><path class="cls-2" d="M19.65,22.26l0.49-.21,1.69,1.3,0.26-2.11L22.58,21l-0.34,2.7,0.69,1.64-0.43.18-0.69-1.64Z"/><path class="cls-2" d="M31.08,20.29a1.77,1.77,0,0,0-1.32-.41,1.72,1.72,0,0,0,.38,3.41,1.81,1.81,0,0,0,1.19-.68l0.06,0.57a2.14,2.14,0,0,1-1.19.54,2.14,2.14,0,1,1-.46-4.26,2,2,0,0,1,1.27.27Z"/><path class="cls-2" d="M34.49,19.84a1.72,1.72,0,1,1-1.85,1.55A1.7,1.7,0,0,1,34.49,19.84Zm0-.43a2.14,2.14,0,1,0,2,2.34A2.16,2.16,0,0,0,34.53,19.41Z"/><path class="cls-2" d="M37.81,22.55a1.53,1.53,0,0,0-.11.93,1.07,1.07,0,0,0,.68.63,1.1,1.1,0,0,0,.89-0.1,1.43,1.43,0,0,0,.48-0.84l0.75-2.35L40.94,21l-0.79,2.47a1.46,1.46,0,0,1-.7,1,1.52,1.52,0,0,1-1.21.11,1.55,1.55,0,0,1-.89-0.73,1.46,1.46,0,0,1,0-1.27l0.79-2.47,0.44,0.14Z"/><path class="cls-2" d="M42.63,21.46L43.8,26l1.57-2.8,0.4,0.23L43.65,27.2l-1.17-4.53-1.56,2.79-0.4-.23Z"/><path class="cls-2" d="M48.93,27.1a1.77,1.77,0,0,0-.62-1.23,1.72,1.72,0,0,0-2.19,2.64,1.81,1.81,0,0,0,1.32.38l-0.37.44a2.14,2.14,0,0,1-1.51-3.5,2.17,2.17,0,0,1,3-.28,2,2,0,0,1,.69,1.1Z"/><path class="cls-2" d="M47.73,30.51l-0.32-.33,3-2.89,0.32,0.33Z"/><path class="cls-2" d="M48.92,31.21l0.73,0.88-0.33.27-1-1.23,3.19-2.65,0.3,0.35Z"/><path class="cls-2" d="M55.84,36.34a1.72,1.72,0,1,1-2.22-1A1.7,1.7,0,0,1,55.84,36.34Zm0.4-.16A2.14,2.14,0,1,0,55,39,2.16,2.16,0,0,0,56.24,36.18Z"/><path class="cls-2" d="M57.51,39.65l-2.8,3.75,3.17-.53,0.08,0.46L53.68,44l2.8-3.75-3.15.53-0.08-.46Z"/><path class="cls-2" d="M8.12,53l1.63-.44L9.86,53l-4,1.08-0.12-.45,2-.53-0.55-2-2,.53-0.12-.45,4-1.08,0.12,0.45L7.57,51Z"/><path class="cls-2" d="M6.57,55.93L6.4,55.51,10.25,54l0.17,0.43Z"/><path class="cls-2" d="M11,57.42a0.76,0.76,0,0,0,.06-0.84,0.66,0.66,0,0,0-.89-0.31,0.84,0.84,0,0,0-.27.88l0,0.3a1.25,1.25,0,1,1-2-.77L8.29,57A0.85,0.85,0,0,0,8,58.11a0.83,0.83,0,0,0,1.11.37,1,1,0,0,0,.37-1.06l0-.28A1.17,1.17,0,0,1,10,55.86a1.09,1.09,0,0,1,1.48.53,1.19,1.19,0,0,1-.07,1.25Z"/><path class="cls-2" d="M9.6,61.4L9.34,61l3-2.14-0.58-.82,0.35-.25,1.42,2-0.35.25-0.58-.83Z"/><path class="cls-2" d="M14.9,61.86a1.72,1.72,0,1,1-2.42,0A1.7,1.7,0,0,1,14.9,61.86Zm0.31-.3a2.15,2.15,0,1,0,0,3A2.16,2.16,0,0,0,15.2,61.56Z"/><path class="cls-2" d="M17.31,64.16l0.11,0.08c0.44,0.34.8,0.69,0.39,1.24s-0.87.27-1.29,0l-0.11-.09Zm-1.15,1.51,0.09,0.07-0.11,2.21,0.45,0.34L16.67,66a1.08,1.08,0,0,0,1.52-.28c0.57-.74.11-1.35-0.51-1.83l-0.48-.36-2.51,3.3,0.37,0.28Z"/><path class="cls-2" d="M18,69.14l-0.39-.24,2.19-3.52,0.39,0.24Z"/><path class="cls-2" d="M23.44,68.3a1.77,1.77,0,0,0-.92-1,1.72,1.72,0,0,0-1.43,3.12,1.82,1.82,0,0,0,1.37,0l-0.24.52a2.14,2.14,0,0,1-1.29-.15,2.15,2.15,0,1,1,1.8-3.89,2,2,0,0,1,1,.89Z"/><path class="cls-2" d="M26.89,68.73l0.17,0c0.53,0.09,1.06.23,0.95,0.9a0.77,0.77,0,0,1-1.06.58l-0.3-.05Zm-0.32,1.88,0.33,0.06a1.49,1.49,0,0,0,1-.1,1.16,1.16,0,0,0,.54-0.81,1.14,1.14,0,0,0-.3-1,1.75,1.75,0,0,0-1-.39l-0.67-.11-0.7,4.09,0.46,0.08Z"/><path class="cls-2" d="M29.63,69.08h0.14c0.56,0,1.05.09,1,.77s-0.54.73-1.07,0.72H29.6Zm0,1.9h0.12l1.21,1.85h0.57L30.21,71a1.08,1.08,0,0,0,1.06-1.12c0-.93-0.71-1.16-1.49-1.18h-0.6l-0.09,4.15h0.46Z"/><path class="cls-2" d="M32.33,68.62l2.14-.23,0,0.43L32.83,69,33,70.22,34.59,70l0,0.43L33,70.65l0.17,1.62,1.68-.18,0,0.43-2.14.23Z"/><path class="cls-2" d="M37.39,68.63a0.76,0.76,0,0,0-.8-0.29,0.66,0.66,0,0,0-.53.78,0.84,0.84,0,0,0,.77.49l0.29,0.06a1.25,1.25,0,1,1-1.27,1.69l0.41-.22a0.85,0.85,0,0,0,1,.57,0.83,0.83,0,0,0,.66-1A1,1,0,0,0,37,70.1L36.72,70a1.17,1.17,0,0,1-1.11-.84,1.09,1.09,0,0,1,.91-1.28,1.19,1.19,0,0,1,1.19.4Z"/><path class="cls-2" d="M38.46,67.51l2-.71,0.14,0.41L39,67.76l0.4,1.16L41,68.39l0.14,0.41-1.55.54,0.53,1.54,1.59-.55,0.14,0.41-2,.71Z"/><path class="cls-2" d="M41.93,66.63l0.12-.06c0.5-.25,1-0.41,1.28.2s-0.14.9-.61,1.13L42.6,68Zm0.84,1.7,0.1-.05,1.93,1.08,0.51-.25-2-1.08a1.08,1.08,0,0,0,.42-1.49c-0.41-.84-1.16-0.7-1.87-0.35l-0.54.27,1.84,3.72L43.58,70Z"/><path class="cls-2" d="M46.76,67L46,63.75l0.41-.28L47.45,68,43.6,65.35,44,65.07Z"/><path class="cls-2" d="M49.67,63.89l-1,.94L48,63.12Zm0.42,0.2,1.15,0.54,0.38-.34-4.3-2,1.5,4.5,0.37-.34-0.42-1.21Z"/><path class="cls-2" d="M52.72,62.94l-0.3.35-2.84-2.4-0.65.76-0.33-.28,1.6-1.89,0.33,0.28-0.65.77Z"/><path class="cls-2" d="M54.27,60.88L54,61.26,50.6,58.91l0.26-.38Z"/><path class="cls-2" d="M52.6,56.28a1.72,1.72,0,1,1,.76,2.29A1.7,1.7,0,0,1,52.6,56.28Zm-0.38-.19a2.15,2.15,0,1,0,2.9-.95A2.16,2.16,0,0,0,52.22,56.09Z"/><path class="cls-2" d="M53.26,53.63l4.15-2.18-3.09-.88,0.13-.44,4.17,1.19L54.47,53.5l3.07,0.88-0.13.44Z"/><path class="cls-2" d="M19.71,47l1-2.57h0.11c0,0.36,0,.73,0,1.08L20.93,47H19.71Zm-0.86,2h2.31l0.11,1H24.5l-1.67-8.41H19.45L15.2,50h3.24Z"/><path class="cls-2" d="M31.24,45a2.28,2.28,0,0,0-1.66-.85,2,2,0,0,0-1.92,1.64,1.4,1.4,0,0,0,1.45,1.64A2.87,2.87,0,0,0,31,46.69l-0.59,3.15a7.27,7.27,0,0,1-2.23.33,3.51,3.51,0,0,1-3.6-4.26,5.32,5.32,0,0,1,5.1-4.42,5.91,5.91,0,0,1,2,.35Z"/><path class="cls-2" d="M32.87,41.62h2.95l-0.45,2.83h1.87l0.45-2.83h2.95L39.3,50H36.35l0.46-2.92H34.94L34.48,50H31.53Z"/><path class="cls-2" d="M44.59,43.92h0.29c0.5,0,1.12,0,1,.69a1,1,0,0,1-1.24.77h-0.3ZM40.67,50h2.95L44,47.5h1.56a3.12,3.12,0,0,0,3.22-2.79c0.33-2.09-1-3.09-2.93-3.09H42Z"/><path class="cls-6" d="M10.91,40.33S15.15,24.6,31.7,24.6,52.4,40.33,52.4,40.33H10.91Z"/><path class="cls-2" d="M26.21,31.89h2.52L26.7,33l0.79,1.7-2-1-2,1,0.8-1.7-2-1.07h2.51l0.76-1.66Z"/><path class="cls-2" d="M20.23,36.42h2.52l-2,1.07,0.79,1.7-2-1-2,1,0.8-1.7-2-1.07h2.51l0.76-1.66Z"/><path class="cls-2" d="M32.1,36.42h2.52l-2,1.07,0.79,1.7-2-1-2,1,0.8-1.7-2-1.07H30.6l0.76-1.66Z"/><path class="cls-2" d="M32,27.5h2.51l-2,1.07,0.78,1.7-2-1-2,1L30,28.57,28,27.5h2.5l0.76-1.65Z"/><path class="cls-2" d="M38.14,31.89h2.52l-2,1.07,0.79,1.7-2-1-2,1,0.8-1.7-2-1.07h2.51l0.76-1.66Z"/><path class="cls-2" d="M44.13,36.38h2.53l-2,1.08,0.79,1.71-2-1.05-2,1.05,0.8-1.71L40.1,36.38h2.52l0.76-1.66Z"/><path class="cls-7" d="M50.47,51.94H42.54V64.61a21.53,21.53,0,0,0,7.93-8.23V51.94Z"/><path class="cls-7" d="M28,51.94V67.28a21.54,21.54,0,0,0,7.08,0V51.94H28Z"/><path class="cls-7" d="M12.92,51.94v4.6a21.53,21.53,0,0,0,7.71,8V51.94H12.92Z"/><path class="cls-8" d="M52.27,51.94h-1.8v4.43A21.26,21.26,0,0,0,52.27,51.94Z"/><path class="cls-8" d="M35.13,51.94V67.3a21.27,21.27,0,0,0,7.42-2.69V51.94H35.13Z"/><path class="cls-8" d="M20.62,51.94V64.52A21.27,21.27,0,0,0,28,67.28V51.94H20.62Z"/><path class="cls-8" d="M11,51.94a21.29,21.29,0,0,0,1.89,4.6v-4.6H11Z"/><path class="cls-8" d="M50.51,71.51V100h7.22V64.13A31.91,31.91,0,0,1,50.51,71.51Z"/><path class="cls-8" d="M5.76,64.13V100H13V71.48A31.91,31.91,0,0,1,5.76,64.13Z"/><path class="cls-7" d="M50.51,52.31H42.58V65a21.53,21.53,0,0,0,7.93-8.23V52.31Z"/><path class="cls-7" d="M28.09,52.31V67.65a21.54,21.54,0,0,0,7.08,0V52.31H28.09Z"/><path class="cls-7" d="M13,52.31v4.6a21.53,21.53,0,0,0,7.71,8V52.31H13Z"/><path class="cls-9" d="M5.76,64.19V100H13V71.53A31.91,31.91,0,0,1,5.76,64.19Z"/><path class="cls-8" d="M37,77.22h0Z"/><path class="cls-8" d="M37,77.22h0Z"/><path class="cls-8" d="M36.09,77.37h0Z"/><path class="cls-8" d="M36.09,77.37h0Z"/><path class="cls-8" d="M39.84,76.62l0.14,0Z"/><path class="cls-8" d="M39.84,76.62l0.14,0Z"/><path class="cls-8" d="M40.7,76.38l0.2-.06Z"/><path class="cls-8" d="M40.7,76.38l0.2-.06Z"/><path class="cls-8" d="M41.58,76.11l0.18-.06Z"/><path class="cls-8" d="M41.58,76.11l0.18-.06Z"/><polygon class="cls-8" points="35.17 77.48 35.17 77.48 35.17 77.48 35.17 77.48"/><polygon class="cls-8" points="35.17 77.48 35.17 77.48 35.17 77.48 35.17 77.48"/><path class="cls-8" d="M41.58,76.11l-0.68.21-0.2.06-0.72.2-0.14,0q-1.34.35-2.73,0.59H37l-0.85.13H36.09l-0.92.11h0V100h7.42V75.76l-0.83.29Z"/><path class="cls-8" d="M41.58,76.11l-0.68.21-0.2.06-0.72.2-0.14,0q-1.34.35-2.73,0.59H37l-0.85.13H36.09l-0.92.11h0V100h7.42V75.76l-0.83.29Z"/><path class="cls-8" d="M41.58,76.11l-0.68.21-0.2.06-0.72.2-0.14,0q-1.34.35-2.73,0.59H37l-0.85.13H36.09l-0.92.11h0V100h7.42V75.76l-0.83.29Z"/><path class="cls-8" d="M20.67,75.68V100h7.42V77.46A31.53,31.53,0,0,1,20.67,75.68Z"/><path class="cls-8" d="M35.17,100h7.42V75.72a31.49,31.49,0,0,1-7.42,1.73V100Z"/></svg>