<?xml version="1.0" encoding="UTF-8" standalone="no"?>
<svg width="17px" height="17px" viewBox="0 0 17 17" version="1.1" xmlns="http://www.w3.org/2000/svg" xmlns:xlink="http://www.w3.org/1999/xlink">
    <!-- Generator: Sketch 3.8.3 (29802) - http://www.bohemiancoding.com/sketch -->
    <title>Grid</title>
    <desc>Created with Sketch.</desc>
    <defs></defs>
    <g id="Symbols" stroke="none" stroke-width="1" fill="none" fill-rule="evenodd">
        <g id="map-header" transform="translate(-588.000000, -110.000000)" fill="#E6F8FF">
            <g id="Title">
                <g>
                    <g id="Tabs" transform="translate(318.000000, 103.000000)">
                        <path d="M270.74206,11.3870334 L274.74206,11.3870334 L274.74206,7.3870334 L270.74206,7.3870334 L270.74206,11.3870334 L270.74206,11.3870334 Z M276.74206,23.3870334 L280.74206,23.3870334 L280.74206,19.3870334 L276.74206,19.3870334 L276.74206,23.3870334 L276.74206,23.3870334 Z M270.74206,23.3870334 L274.74206,23.3870334 L274.74206,19.3870334 L270.74206,19.3870334 L270.74206,23.3870334 L270.74206,23.3870334 Z M270.74206,17.3870334 L274.74206,17.3870334 L274.74206,13.3870334 L270.74206,13.3870334 L270.74206,17.3870334 L270.74206,17.3870334 Z M276.74206,17.3870334 L280.74206,17.3870334 L280.74206,13.3870334 L276.74206,13.3870334 L276.74206,17.3870334 L276.74206,17.3870334 Z M282.74206,7.3870334 L282.74206,11.3870334 L286.74206,11.3870334 L286.74206,7.3870334 L282.74206,7.3870334 L282.74206,7.3870334 Z M276.74206,11.3870334 L280.74206,11.3870334 L280.74206,7.3870334 L276.74206,7.3870334 L276.74206,11.3870334 L276.74206,11.3870334 Z M282.74206,17.3870334 L286.74206,17.3870334 L286.74206,13.3870334 L282.74206,13.3870334 L282.74206,17.3870334 L282.74206,17.3870334 Z M282.74206,23.3870334 L286.74206,23.3870334 L286.74206,19.3870334 L282.74206,19.3870334 L282.74206,23.3870334 L282.74206,23.3870334 Z" id="Grid"></path>
                    </g>
                </g>
            </g>
        </g>
    </g>
</svg>