<?xml version="1.0" encoding="UTF-8" standalone="no"?>
<svg width="46px" height="47px" viewBox="0 0 46 47" version="1.1" xmlns="http://www.w3.org/2000/svg" xmlns:xlink="http://www.w3.org/1999/xlink">
    <!-- Generator: Sketch 41.2 (35397) - http://www.bohemiancoding.com/sketch -->
    <title>agreement-docs-icon</title>
    <desc>Created with Sketch.</desc>
    <defs>
        <circle id="path-1" cx="23" cy="23" r="23"></circle>
        <mask id="mask-2" maskContentUnits="userSpaceOnUse" maskUnits="objectBoundingBox" x="0" y="0" width="46" height="46" fill="white">
            <use xlink:href="#path-1"></use>
        </mask>
    </defs>
    <g id="PHP:-PHP-OVERVIEW" stroke="none" stroke-width="1" fill="none" fill-rule="evenodd">
        <g id="php-php-overview" transform="translate(-122.000000, -2549.000000)">
            <g id="Group" transform="translate(122.000000, 2480.000000)">
                <g id="Agreement-Docs" transform="translate(0.000000, 69.599998)">
                    <g id="agreement-docs-icon">
                        <use id="Outline-Copy-2" stroke="#013B5E" mask="url(#mask-2)" stroke-width="2" xlink:href="#path-1"></use>
                        <g id="clipboard-check-(1)" transform="translate(12.000000, 11.000000)" fill="#0086FC">
                            <path d="M8.55555556,19.2 L3.66666667,14.4 L5.39,12.708 L8.55555556,15.804 L16.61,7.896 L18.3333333,9.6 L8.55555556,19.2 Z M11,2.4 C11.6750147,2.4 12.2222222,2.9372583 12.2222222,3.6 C12.2222222,4.2627417 11.6750147,4.8 11,4.8 C10.3249853,4.8 9.77777778,4.2627417 9.77777778,3.6 C9.77777778,2.9372583 10.3249853,2.4 11,2.4 L11,2.4 Z M19.5555556,2.4 L14.4466667,2.4 C13.9333333,1.008 12.5888889,0 11,0 C9.41111111,0 8.06666667,1.008 7.55333333,2.4 L2.44444444,2.4 C1.09441506,2.4 0,3.4745166 0,4.8 L0,21.6 C0,22.9254834 1.09441506,24 2.44444444,24 L19.5555556,24 C20.9055849,24 22,22.9254834 22,21.6 L22,4.8 C22,3.4745166 20.9055849,2.4 19.5555556,2.4 Z" id="agreement-docs-icon"></path>
                        </g>
                    </g>
                </g>
            </g>
        </g>
    </g>
</svg>