<?xml version="1.0" encoding="UTF-8" standalone="no"?>
<svg width="106px" height="136px" viewBox="0 0 106 136" version="1.1" xmlns="http://www.w3.org/2000/svg" xmlns:xlink="http://www.w3.org/1999/xlink">
    <!-- Generator: Sketch 3.8.2 (29753) - http://www.bohemiancoding.com/sketch -->
    <title>clipboard-icon</title>
    <desc>Created with Sketch.</desc>
    <defs></defs>
    <g id="mobile-dev" stroke="none" stroke-width="1" fill="none" fill-rule="evenodd">
        <g id="original-p22-minionpro" transform="translate(-96.000000, -5237.000000)">
            <g id="Highlight-Staistics" transform="translate(0.000000, 5049.000000)">
                <g id="clipboard-icon" transform="translate(96.000000, 188.000000)">
                    <rect id="Rectangle-22" fill="#043B62" x="0" y="0" width="106" height="136" rx="4"></rect>
                    <path d="M98.274,118.124 C98.274,121.847 95.256,124.864 91.534,124.864 L13.741,124.864 C10.018,124.864 7,121.847 7,118.124 L7,16.74 C7,13.017 10.018,10 13.741,10 L91.534,10 C95.256,10 98.274,13.017 98.274,16.74 L98.274,118.124 Z" id="page" fill="#FFFFFF"></path>
                    <polygon id="Fill-6" fill="#0697EC" points="88.5355 18.8166 17.3425 18.8166 28.9395 3.0896 76.9385 3.0896"></polygon>
                    <polygon id="Fill-8" fill="#CCCCCC" points="32.367 33.982 88.535 33.982 88.535 28.646 32.367 28.646"></polygon>
                    <path d="M24.9248,31.314 C24.9248,33.408 23.2278,35.105 21.1328,35.105 C19.0398,35.105 17.3418,33.408 17.3418,31.314 C17.3418,29.22 19.0398,27.523 21.1328,27.523 C23.2278,27.523 24.9248,29.22 24.9248,31.314" id="Fill-10" fill="#0697EC"></path>
                    <polygon id="Fill-11" fill="#CCCCCC" points="32.367 53.536 88.535 53.536 88.535 48.2 32.367 48.2"></polygon>
                    <path d="M24.9248,50.8678 C24.9248,52.9618 23.2278,54.6588 21.1328,54.6588 C19.0398,54.6588 17.3418,52.9618 17.3418,50.8678 C17.3418,48.7738 19.0398,47.0768 21.1328,47.0768 C23.2278,47.0768 24.9248,48.7738 24.9248,50.8678" id="Fill-12" fill="#0697EC"></path>
                    <polygon id="Fill-13" fill="#CCCCCC" points="32.367 73.089 88.535 73.089 88.535 67.753 32.367 67.753"></polygon>
                    <path d="M24.9248,70.4215 C24.9248,72.5155 23.2278,74.2125 21.1328,74.2125 C19.0398,74.2125 17.3418,72.5155 17.3418,70.4215 C17.3418,68.3275 19.0398,66.6295 21.1328,66.6295 C23.2278,66.6295 24.9248,68.3275 24.9248,70.4215" id="Fill-14" fill="#0697EC"></path>
                    <polygon id="Fill-15" fill="#CCCCCC" points="32.367 92.643 88.535 92.643 88.535 87.307 32.367 87.307"></polygon>
                    <path d="M24.9248,89.9753 C24.9248,92.0693 23.2278,93.7663 21.1328,93.7663 C19.0398,93.7663 17.3418,92.0693 17.3418,89.9753 C17.3418,87.8813 19.0398,86.1833 21.1328,86.1833 C23.2278,86.1833 24.9248,87.8813 24.9248,89.9753" id="Fill-16" fill="#0697EC"></path>
                    <polygon id="Fill-17" fill="#CCCCCC" points="32.367 112.197 88.535 112.197 88.535 106.861 32.367 106.861"></polygon>
                    <path d="M24.9248,109.5285 C24.9248,111.6225 23.2278,113.3195 21.1328,113.3195 C19.0398,113.3195 17.3418,111.6225 17.3418,109.5285 C17.3418,107.4345 19.0398,105.7375 21.1328,105.7375 C23.2278,105.7375 24.9248,107.4345 24.9248,109.5285" id="Fill-18" fill="#0697EC"></path>
                </g>
            </g>
        </g>
    </g>
</svg>