<?xml version="1.0" encoding="UTF-8" standalone="no"?>
<svg width="46px" height="47px" viewBox="0 0 46 47" version="1.1" xmlns="http://www.w3.org/2000/svg" xmlns:xlink="http://www.w3.org/1999/xlink">
    <!-- Generator: Sketch 41.2 (35397) - http://www.bohemiancoding.com/sketch -->
    <title>explanation-resources-icon</title>
    <desc>Created with Sketch.</desc>
    <defs>
        <circle id="path-1" cx="23" cy="23" r="23"></circle>
        <mask id="mask-2" maskContentUnits="userSpaceOnUse" maskUnits="objectBoundingBox" x="0" y="0" width="46" height="46" fill="white">
            <use xlink:href="#path-1"></use>
        </mask>
    </defs>
    <g id="PHP:-PHP-OVERVIEW" stroke="none" stroke-width="1" fill="none" fill-rule="evenodd">
        <g id="php-php-overview" transform="translate(-122.000000, -2617.000000)">
            <g id="Group" transform="translate(122.000000, 2480.000000)">
                <g id="Explanation-Resources" transform="translate(0.000000, 137.599998)">
                    <g id="explanation-resources-icon">
                        <path d="M14.2,12 L31.8,12 C33.0150264,12 34,12.9849736 34,14.2 L34,27.4 C34,28.6150264 33.0150264,29.6 31.8,29.6 L27.4,29.6 L23,34 L18.6,29.6 L14.2,29.6 C12.9849736,29.6 12,28.6150264 12,27.4 L12,14.2 C12,12.9849736 12.9849736,12 14.2,12 L14.2,12 Z M15.3,15.3 L15.3,17.5 L30.7,17.5 L30.7,15.3 L15.3,15.3 L15.3,15.3 Z M15.3,19.7 L15.3,21.9 L26.3,21.9 L26.3,19.7 L15.3,19.7 L15.3,19.7 Z M15.3,24.1 L15.3,26.3 L28.5,26.3 L28.5,24.1 L15.3,24.1 Z" fill="#0990FE"></path>
                        <use id="Outline-Copy" stroke="#013B5E" mask="url(#mask-2)" stroke-width="2" xlink:href="#path-1"></use>
                    </g>
                </g>
            </g>
        </g>
    </g>
</svg>