<?xml version="1.0" encoding="UTF-8" standalone="no"?>
<svg width="18px" height="18px" viewBox="0 0 18 18" version="1.1" xmlns="http://www.w3.org/2000/svg" xmlns:xlink="http://www.w3.org/1999/xlink">
    <!-- Generator: Sketch 41.2 (35397) - http://www.bohemiancoding.com/sketch -->
    <title>external-link-icon</title>
    <desc>Created with Sketch.</desc>
    <defs></defs>
    <g id="PPG:-PRESERVE-AMERICA" stroke="none" stroke-width="1" fill="none" fill-rule="evenodd">
        <g id="ppg-preserve-america-federal-support" transform="translate(-505.000000, -2111.000000)" fill="#0990FE">
            <path d="M521,2127 L507,2127 L507,2113 L514,2113 L514,2111 L507,2111 C505.9,2111 505,2111.9 505,2113 L505,2127 C505,2128.1 505.9,2129 507,2129 L521,2129 C522.1,2129 523,2128.1 523,2127 L523,2120 L521,2120 L521,2127 L521,2127 Z M516,2111 L516,2113 L519.6,2113 L509.8,2122.8 L511.2,2124.2 L521,2114.4 L521,2118 L523,2118 L523,2111 L516,2111 L516,2111 Z" id="external-link-icon"></path>
        </g>
    </g>
</svg>