<?xml version="1.0" encoding="UTF-8" standalone="no"?>
<svg width="46px" height="46px" viewBox="0 0 46 46" version="1.1" xmlns="http://www.w3.org/2000/svg" xmlns:xlink="http://www.w3.org/1999/xlink">
    <!-- Generator: Sketch 41.2 (35397) - http://www.bohemiancoding.com/sketch -->
    <title>faq-icon</title>
    <desc>Created with Sketch.</desc>
    <defs>
        <circle id="path-1" cx="23" cy="23" r="23"></circle>
        <mask id="mask-2" maskContentUnits="userSpaceOnUse" maskUnits="objectBoundingBox" x="0" y="0" width="46" height="46" fill="white">
            <use xlink:href="#path-1"></use>
        </mask>
    </defs>
    <g id="PHP:-PHP-OVERVIEW" stroke="none" stroke-width="1" fill="none" fill-rule="evenodd">
        <g id="php-php-overview" transform="translate(-605.000000, -2550.000000)">
            <g id="FAQ" transform="translate(605.000000, 2550.000000)">
                <g id="faq-icon">
                    <use id="Outline-Copy-2" stroke="#013B5E" mask="url(#mask-2)" stroke-width="2" xlink:href="#path-1"></use>
                    <path d="M15,14 C13.8954305,14 13,14.8954305 13,16 L13,28 C13,29.1045695 13.8954305,30 15,30 L19,30 L19,33 C19,33.5522847 19.4477153,34 20,34 L20.5,34 L20.5,34 C20.75,34 21,33.9 21.2,33.71 L24.9,30 L31,30 C32.1045695,30 33,29.1045695 33,28 L33,16 C33,14.89 32.1,14 31,14 L15,14 L15,14 Z M15,16 L31,16 L31,28 L24.08,28 L21,31.08 L21,28 L15,28 L15,16 L15,16 Z M23.19,17.5 C22.3,17.5 21.59,17.68 21.05,18.04 C20.5,18.4 20.22,19 20.27,19.69 C11.21,19.69 17.57,19.69 22.24,19.69 C22.24,19.41 22.34,19.2 22.5,19.06 C22.7,18.92 22.92,18.85 23.19,18.85 C23.5,18.85 23.77,18.93 23.95,19.11 C24.13,19.28 24.22,19.5 24.22,19.8 C24.22,20.08 24.14,20.33 24,20.54 C23.83,20.76 23.62,20.94 23.36,21.08 C22.84,21.4 22.5,21.68 22.29,21.92 C22.1,22.16 22,22.5 22,23 L24,23 C24,22.72 24.05,22.5 24.14,22.32 C24.23,22.15 24.4,22 24.66,21.85 C25.12,21.64 25.5,21.36 25.79,21 C26.08,20.63 26.23,20.24 26.23,19.8 C26.23,19.1 25.96,18.54 25.42,18.12 C24.88,17.71 24.13,17.5 23.19,17.5 L23.19,17.5 Z M22,24 L22,26 L24,26 L24,24 L22,24 Z" fill="#0081FB"></path>
                </g>
            </g>
        </g>
    </g>
</svg>