<?xml version="1.0" encoding="UTF-8" standalone="no"?>
<svg width="46px" height="46px" viewBox="0 0 46 46" version="1.1" xmlns="http://www.w3.org/2000/svg" xmlns:xlink="http://www.w3.org/1999/xlink">
    <!-- Generator: Sketch 41.2 (35397) - http://www.bohemiancoding.com/sketch -->
    <title>guidance-docs-icon</title>
    <desc>Created with Sketch.</desc>
    <defs>
        <circle id="path-1" cx="23" cy="23" r="23"></circle>
        <mask id="mask-2" maskContentUnits="userSpaceOnUse" maskUnits="objectBoundingBox" x="0" y="0" width="46" height="46" fill="white">
            <use xlink:href="#path-1"></use>
        </mask>
    </defs>
    <g id="PHP:-PHP-OVERVIEW" stroke="none" stroke-width="1" fill="none" fill-rule="evenodd">
        <g id="php-php-overview" transform="translate(-605.000000, -2481.000000)">
            <g id="Guidance-Docs" transform="translate(605.000000, 2481.000000)">
                <g id="guidance-docs-icon">
                    <g id="routes" transform="translate(12.000000, 11.000000)" fill="#0990FE">
                        <path d="M9.77777778,10 L2.44444444,10 L0,7.5 L2.44444444,5 L9.77777778,5 L9.77777778,1.25 L11,0 L12.2222222,1.25 L12.2222222,2.5 L19.5555556,2.5 L22,5 L19.5555556,7.5 L12.2222222,7.5 L12.2222222,10 L19.5555556,10 L22,12.5 L19.5555556,15 L12.2222222,15 L12.2222222,22.5 C13.5722516,22.5 14.6666667,23.6192881 14.6666667,25 L7.33333333,25 C7.33333333,23.6192881 8.42774839,22.5 9.77777778,22.5 L9.77777778,10 Z" id="guidance-docs-icon"></path>
                    </g>
                    <use id="Outline" stroke="#013B5E" mask="url(#mask-2)" stroke-width="2" xlink:href="#path-1"></use>
                </g>
            </g>
        </g>
    </g>
</svg>