<?xml version="1.0" encoding="UTF-8" standalone="no"?>
<svg width="30px" height="27px" viewBox="0 0 30 27" version="1.1" xmlns="http://www.w3.org/2000/svg" xmlns:xlink="http://www.w3.org/1999/xlink">
    <!-- Generator: Sketch 39.1 (31720) - http://www.bohemiancoding.com/sketch -->
    <title>left-quotes-icon</title>
    <desc>Created with Sketch.</desc>
    <defs></defs>
    <g id="about-achp" stroke="none" stroke-width="1" fill="none" fill-rule="evenodd">
        <g id="achp-about-landing-page" transform="translate(-47.000000, -781.000000)" fill="#950306">
            <g id="Mission-Statement-Copy" transform="translate(0.000000, 678.000000)">
                <path d="M58.7,129.4 L58.7,118.3 L52.8,118.3 C52.8,117.166661 52.8833325,116.016672 53.05,114.85 C53.2166675,113.683327 53.533331,112.633338 54,111.7 C54.466669,110.766662 55.066663,110.016669 55.8,109.45 C56.533337,108.88333 57.466661,108.6 58.6,108.6 L58.6,103.6 C56.733324,103.6 55.100007,103.999996 53.7,104.8 C52.299993,105.600004 51.1500045,106.66666 50.25,108 C49.3499955,109.33334 48.6833355,110.883324 48.25,112.65 C47.8166645,114.416675 47.6,116.29999 47.6,118.3 L47.6,129.4 L58.7,129.4 Z M77,129.4 L77,118.3 L71.1,118.3 C71.1,117.166661 71.1833325,116.016672 71.35,114.85 C71.5166675,113.683327 71.833331,112.633338 72.3,111.7 C72.766669,110.766662 73.366663,110.016669 74.1,109.45 C74.833337,108.88333 75.766661,108.6 76.9,108.6 L76.9,103.6 C75.033324,103.6 73.400007,103.999996 72,104.8 C70.599993,105.600004 69.4500045,106.66666 68.55,108 C67.6499955,109.33334 66.9833355,110.883324 66.55,112.65 C66.1166645,114.416675 65.9,116.29999 65.9,118.3 L65.9,129.4 L77,129.4 Z" id="left-quotes-icon"></path>
            </g>
        </g>
    </g>
</svg>