<?xml version="1.0" encoding="UTF-8" standalone="no"?>
<svg width="4px" height="16px" viewBox="0 0 4 16" version="1.1" xmlns="http://www.w3.org/2000/svg" xmlns:xlink="http://www.w3.org/1999/xlink">
    <!-- Generator: Sketch 3.7.2 (28276) - http://www.bohemiancoding.com/sketch -->
    <title>more-dots-icon</title>
    <desc>Created with Sketch.</desc>
    <defs></defs>
    <g id="color-trials" stroke="none" stroke-width="1" fill="none" fill-rule="evenodd">
        <g id="original-p22-minionpro" transform="translate(-321.000000, -1041.000000)" fill="#FFF">
            <g id="Quicklinks-Section" transform="translate(0.000000, 570.000000)">
                <g id="Federal-Preservation" transform="translate(42.000000, 46.000000)">
                    <g id="more-vert" transform="translate(279.000000, 425.000000)">
                        <path d="M2,4 C3.1,4 4,3.1 4,2 C4,0.9 3.1,0 2,0 C0.9,0 0,0.9 0,2 C0,3.1 0.9,4 2,4 L2,4 Z M2,6 C0.9,6 0,6.9 0,8 C0,9.1 0.9,10 2,10 C3.1,10 4,9.1 4,8 C4,6.9 3.1,6 2,6 L2,6 Z M2,12 C0.9,12 0,12.9 0,14 C0,15.1 0.9,16 2,16 C3.1,16 4,15.1 4,14 C4,12.9 3.1,12 2,12 L2,12 Z" id="Shape"></path>
                    </g>
                </g>
            </g>
        </g>
    </g>
</svg>