<?xml version="1.0" encoding="UTF-8" standalone="no"?>
<svg width="46px" height="46px" viewBox="0 0 46 46" version="1.1" xmlns="http://www.w3.org/2000/svg" xmlns:xlink="http://www.w3.org/1999/xlink">
    <!-- Generator: Sketch 41.2 (35397) - http://www.bohemiancoding.com/sketch -->
    <title>publcations-icon</title>
    <desc>Created with Sketch.</desc>
    <defs>
        <circle id="path-1" cx="23" cy="23" r="23"></circle>
        <mask id="mask-2" maskContentUnits="userSpaceOnUse" maskUnits="objectBoundingBox" x="0" y="0" width="46" height="46" fill="white">
            <use xlink:href="#path-1"></use>
        </mask>
    </defs>
    <g id="PHP:-PHP-OVERVIEW" stroke="none" stroke-width="1" fill="none" fill-rule="evenodd">
        <g id="php-php-overview" transform="translate(-605.000000, -2618.000000)">
            <g id="Explanation-Resources-Copy" transform="translate(605.000000, 2618.000000)">
                <g id="publcations-icon">
                    <use id="Outline-Copy" stroke="#013B5E" mask="url(#mask-2)" stroke-width="2" xlink:href="#path-1"></use>
                    <path d="M24,19 L29.5,19 L24,13.5 L24,19 L24,19 Z M17,12 L25,12 L31,18 L31,30 C31,31.1045695 30.1045695,32 29,32 L17,32 C15.89,32 15,31.1 15,30 L15,14 C15,12.89 15.89,12 17,12 L17,12 Z M26,28 L26,26 L17,26 L17,28 L26,28 L26,28 Z M29,24 L29,22 L17,22 L17,24 L29,24 Z" fill="#008BFD"></path>
                </g>
            </g>
        </g>
    </g>
</svg>