<?xml version="1.0" encoding="UTF-8" standalone="no"?>
<svg width="30px" height="27px" viewBox="0 0 30 27" version="1.1" xmlns="http://www.w3.org/2000/svg" xmlns:xlink="http://www.w3.org/1999/xlink">
    <!-- Generator: Sketch 39.1 (31720) - http://www.bohemiancoding.com/sketch -->
    <title>right-quotes-icon</title>
    <desc>Created with Sketch.</desc>
    <defs></defs>
    <g id="about-achp" stroke="none" stroke-width="1" fill="none" fill-rule="evenodd">
        <g id="achp-about-landing-page" transform="translate(-935.000000, -857.000000)" fill="#950306">
            <g id="Mission-Statement-Copy" transform="translate(0.000000, 678.000000)">
                <path d="M935.6,179.6 L935.6,190.7 L941.5,190.7 C941.5,191.833339 941.416668,192.983328 941.25,194.15 C941.083332,195.316673 940.766669,196.366662 940.3,197.3 C939.833331,198.233338 939.233337,198.98333 938.5,199.55 C937.766663,200.11667 936.833339,200.4 935.7,200.4 L935.7,205.4 C937.633343,205.4 939.283327,205.000004 940.65,204.2 C942.016674,203.399996 943.149996,202.33334 944.05,201 C944.950004,199.66666 945.616664,198.116675 946.05,196.35 C946.483335,194.583325 946.7,192.70001 946.7,190.7 L946.7,179.6 L935.6,179.6 Z M953.9,179.6 L953.9,190.7 L959.8,190.7 C959.8,191.833339 959.716667,192.983328 959.55,194.15 C959.383333,195.316673 959.066669,196.366662 958.6,197.3 C958.133331,198.233338 957.533337,198.98333 956.8,199.55 C956.066663,200.11667 955.133339,200.4 954,200.4 L954,205.4 C955.933343,205.4 957.583326,205.000004 958.95,204.2 C960.316673,203.399996 961.449995,202.33334 962.35,201 C963.250005,199.66666 963.916665,198.116675 964.35,196.35 C964.783336,194.583325 965,192.70001 965,190.7 L965,179.6 L953.9,179.6 Z" id="right-quotes-icon"></path>
            </g>
        </g>
    </g>
</svg>