<?xml version="1.0" encoding="UTF-8" standalone="no"?>
<svg width="18px" height="18px" viewBox="0 0 18 18" version="1.1" xmlns="http://www.w3.org/2000/svg" xmlns:xlink="http://www.w3.org/1999/xlink">
    <!-- Generator: Sketch 3.7.2 (28276) - http://www.bohemiancoding.com/sketch -->
    <title>search-icon</title>
    <desc>Created with Sketch.</desc>
    <defs></defs>
    <g id="color-trials" stroke="none" stroke-width="1" fill="none" fill-rule="evenodd">
        <g id="original-p22-minionpro" transform="translate(-957.000000, -50.000000)" fill="#fff">
            <g id="Header">
                <g id="Main-Titlebar">
                    <g id="Search" transform="translate(831.000000, 40.000000)">
                        <path d="M138.5,21 L137.7,21 L137.4,20.7 C138.4,19.6 139,18.1 139,16.5 C139,12.9 136.1,10 132.5,10 C128.9,10 126,12.9 126,16.5 C126,20.1 128.9,23 132.5,23 C134.1,23 135.6,22.4 136.7,21.4 L137,21.7 L137,22.5 L142,27.5 L143.5,26 L138.5,21 L138.5,21 Z M132.5,21 C130,21 128,19 128,16.5 C128,14 130,12 132.5,12 C135,12 137,14 137,16.5 C137,19 135,21 132.5,21 L132.5,21 Z" id="search-icon"></path>
                    </g>
                </g>
            </g>
        </g>
    </g>
</svg>