<?xml version="1.0" encoding="UTF-8" standalone="no"?>
<svg width="25px" height="25px" viewBox="0 0 25 25" version="1.1" xmlns="http://www.w3.org/2000/svg" xmlns:xlink="http://www.w3.org/1999/xlink">
    <!-- Generator: Sketch 39.1 (31720) - http://www.bohemiancoding.com/sketch -->
    <title>stop-icon</title>
    <desc>Created with Sketch.</desc>
    <defs></defs>
    <g id="pages:--section-106-process" stroke="none" stroke-width="1" fill="none" fill-rule="evenodd">
        <g id="section-106-flowchart-process-desktop" transform="translate(-287.000000, -1537.000000)" fill="#4A4A4A">
            <g id="No" transform="translate(202.000000, 1364.000000)">
                <g id="Process-Over---Neutral" transform="translate(53.000000, 160.000000)">
                    <g id="stop-icon" transform="translate(32.000000, 13.000000)">
                        <g>
                            <path d="M12.5,5.55111512e-16 C5.59644063,-2.22044605e-15 5.55111512e-16,5.59644063 0,12.5 C-1.66533454e-15,15.8152061 1.3169605,18.99463 3.66116524,21.3388348 C6.00536997,23.6830395 9.18479388,25 12.5,25 C15.8152061,25 18.99463,23.6830395 21.3388348,21.3388348 C23.6830395,18.99463 25,15.8152061 25,12.5 C25,9.18479388 23.6830395,6.00536997 21.3388348,3.66116524 C18.99463,1.3169605 15.8152061,2.77555756e-16 12.5,0 M12.5,2.5 C18.0125,2.5 22.5,6.9875 22.5,12.5 C22.5,18.0125 18.0125,22.5 12.5,22.5 C6.9875,22.5 2.5,18.0125 2.5,12.5 C2.5,6.9875 6.9875,2.5 12.5,2.5 M8.75,8.75 L8.75,16.25 L16.25,16.25 L16.25,8.75"></path>
                        </g>
                    </g>
                </g>
            </g>
        </g>
    </g>
</svg>