<?xml version="1.0" encoding="UTF-8" standalone="no"?>
<svg width="125px" height="151px" viewBox="0 0 125 151" version="1.1" xmlns="http://www.w3.org/2000/svg" xmlns:xlink="http://www.w3.org/1999/xlink">
    <!-- Generator: Sketch 3.8.2 (29753) - http://www.bohemiancoding.com/sketch -->
    <title>stopwatch-icon</title>
    <desc>Created with Sketch.</desc>
    <defs></defs>
    <g id="mobile-dev" stroke="none" stroke-width="1" fill="none" fill-rule="evenodd">
        <g id="original-p22-minionpro" transform="translate(-811.000000, -5229.000000)">
            <g id="Highlight-Staistics" transform="translate(0.000000, 5049.000000)">
                <g id="stopwatch-icon" transform="translate(815.000000, 187.000000)">
                    <path d="M112.9735,81.4102 C112.9735,111.6402 88.4665,136.1472 58.2365,136.1472 C28.0065,136.1472 3.4995,111.6402 3.4995,81.4102 C3.4995,51.1802 28.0065,26.6732 58.2365,26.6732 C88.4665,26.6732 112.9735,51.1802 112.9735,81.4102" id="Fill-1" fill="#FFFFFF"></path>
                    <path d="M112.9735,81.4102 C112.9735,111.6402 88.4665,136.1472 58.2365,136.1472 C28.0065,136.1472 3.4995,111.6402 3.4995,81.4102 C3.4995,51.1802 28.0065,26.6732 58.2365,26.6732 C88.4665,26.6732 112.9735,51.1802 112.9735,81.4102 L112.9735,81.4102 Z" id="Stroke-3" stroke="#013B5D" stroke-width="15"></path>
                    <path d="M58.3617,36.5771 L58.3617,81.5771 L103.3617,81.5771 C103.3617,56.7241 83.2147,36.5771 58.3617,36.5771" id="Fill-5" fill="#0697EC"></path>
                    <path d="M58.2367,24.4156 L58.2367,0.4996" id="Stroke-7" stroke="#013B5D" stroke-width="15"></path>
                    <path d="M37.9231,0.4995 L78.5501,0.4995" id="Stroke-9" stroke="#013B5D" stroke-width="15"></path>
                    <path d="M99.4894,16.5417 L116.4004,33.4527" id="Stroke-11" stroke="#013B5D" stroke-width="10"></path>
                    <path d="M91.0337,41.9087 L107.9447,24.9977" id="Stroke-13" stroke="#013B5D" stroke-width="10"></path>
                    <path d="M16.984,16.5417 L0.073,33.4527" id="Stroke-15" stroke="#013B5D" stroke-width="10"></path>
                    <path d="M25.4397,41.9087 L8.5287,24.9977" id="Stroke-17" stroke="#013B5D" stroke-width="10"></path>
                    <path d="M58.2367,36.6228 L58.2367,45.2898" id="Stroke-19" stroke="#013B5D" stroke-width="3"></path>
                    <path d="M41.0973,40.032 L43.2663,45.267" id="Stroke-21" stroke="#013B5D" stroke-width="2"></path>
                    <path d="M16.8585,64.2708 L22.0935,66.4398" id="Stroke-23" stroke="#013B5D" stroke-width="2"></path>
                    <path d="M16.8585,98.5496 L22.0935,96.3806" id="Stroke-25" stroke="#013B5D" stroke-width="2"></path>
                    <path d="M41.0973,122.7884 L43.2663,117.5534" id="Stroke-27" stroke="#013B5D" stroke-width="2"></path>
                    <path d="M75.3761,122.7884 L73.2081,117.5534" id="Stroke-29" stroke="#013B5D" stroke-width="2"></path>
                    <path d="M99.6149,98.5496 L94.3799,96.3806" id="Stroke-31" stroke="#013B5D" stroke-width="2"></path>
                    <path d="M99.6149,64.2708 L94.3799,66.4398" id="Stroke-33" stroke="#013B5D" stroke-width="2"></path>
                    <path d="M75.3761,40.032 L73.2081,45.267" id="Stroke-35" stroke="#013B5D" stroke-width="2"></path>
                    <path d="M26.5672,49.7407 L32.6952,55.8687" id="Stroke-37" stroke="#013B5D" stroke-width="3"></path>
                    <path d="M13.4493,81.4102 L22.1163,81.4102" id="Stroke-39" stroke="#013B5D" stroke-width="3"></path>
                    <path d="M26.5672,113.0797 L32.6952,106.9517" id="Stroke-41" stroke="#013B5D" stroke-width="3"></path>
                    <path d="M58.2367,126.1977 L58.2367,117.5307" id="Stroke-43" stroke="#013B5D" stroke-width="3"></path>
                    <path d="M89.9062,113.0797 L83.7782,106.9517" id="Stroke-45" stroke="#013B5D" stroke-width="3"></path>
                    <path d="M89.9062,49.7407 L83.7782,55.8687" id="Stroke-47" stroke="#013B5D" stroke-width="3"></path>
                    <polygon id="Fill-49" fill="#013B5D" points="43.135 78.4102 103.362 80.6412 103.362 82.1792 43.135 84.4102"></polygon>
                    <path d="M62.5337,81.3311 C62.5337,83.6351 60.6657,85.5031 58.3617,85.5031 C56.0577,85.5031 54.1897,83.6351 54.1897,81.3311 C54.1897,79.0271 56.0577,77.1591 58.3617,77.1591 C60.6657,77.1591 62.5337,79.0271 62.5337,81.3311" id="Fill-51" fill="#FFFFFF"></path>
                    <path d="M62.5337,81.3311 C62.5337,83.6351 60.6657,85.5031 58.3617,85.5031 C56.0577,85.5031 54.1897,83.6351 54.1897,81.3311 C54.1897,79.0271 56.0577,77.1591 58.3617,77.1591 C60.6657,77.1591 62.5337,79.0271 62.5337,81.3311 L62.5337,81.3311 Z" id="Stroke-53" stroke="#174F64" stroke-width="2"></path>
                </g>
            </g>
        </g>
    </g>
</svg>